<?xml version="1.0" standalone="no"?>
<!DOCTYPE svg PUBLIC "-//W3C//DTD SVG 20010904//EN"
 "http://www.w3.org/TR/2001/REC-SVG-20010904/DTD/svg10.dtd">
<svg version="1.0" xmlns="http://www.w3.org/2000/svg"
 width="256.000000pt" height="256.000000pt" viewBox="0 0 256.000000 256.000000"
 preserveAspectRatio="xMidYMid meet">
<metadata>
Created by potrace 1.14, written by Peter Selinger 2001-2017
</metadata>
<g transform="translate(0.000000,256.000000) scale(0.100000,-0.100000)"
fill="#000000" stroke="none">
<path d="M350 2540 l-25 -19 -3 -1223 c-2 -917 1 -1230 9 -1251 7 -16 23 -33
36 -38 14 -5 402 -9 919 -9 l896 0 29 29 29 29 0 971 0 971 -260 0 -260 0 0
280 0 280 -672 0 c-648 0 -674 -1 -698 -20z m589 -399 c103 -55 58 -221 -59
-221 -61 0 -120 60 -120 122 0 35 37 88 73 103 32 14 75 12 106 -4z m682 -473
c95 -128 192 -259 216 -290 l44 -58 -601 0 -601 0 62 78 c35 42 66 79 69 82 3
3 47 57 98 121 l93 117 79 -82 c43 -44 80 -79 83 -76 2 3 48 61 103 130 54 69
101 127 104 130 3 3 18 22 33 43 15 20 32 37 37 37 4 0 86 -105 181 -232z
m-541 -855 c38 -19 100 -88 88 -98 -2 -1 -27 -8 -56 -14 -51 -11 -54 -10 -75
15 -28 32 -84 46 -124 29 -44 -19 -66 -61 -69 -129 -3 -114 32 -168 111 -169
39 0 51 4 78 31 17 17 28 34 25 37 -3 3 -27 7 -54 8 l-49 3 0 39 0 40 113 3
112 3 0 -123 0 -123 -47 1 c-29 1 -48 6 -48 13 0 14 -6 14 -52 -6 -46 -19
-138 -13 -198 11 -73 30 -115 114 -112 223 4 113 61 196 153 222 54 16 156 8
204 -16z m285 18 c20 -1 21 -6 19 -228 -1 -126 -2 -230 -3 -233 -1 -4 -83 -5
-112 -1 -7 1 -10 414 -3 447 3 18 10 21 41 19 21 -2 47 -4 58 -4z m473 -39 l3
-41 -123 -3 -123 -3 -2 -47 -2 -48 93 0 94 0 0 -40 c1 -45 12 -41 -118 -44
l-65 -1 -1 -93 c-1 -51 -4 -95 -7 -99 -8 -7 -87 -11 -104 -5 -10 3 -13 59 -13
231 0 125 2 230 4 232 2 2 85 4 183 4 l178 -1 3 -42z"/>
<path d="M1880 2355 l0 -195 182 0 c176 0 181 1 162 18 -10 10 -48 51 -84 91
-35 41 -82 92 -102 115 -21 22 -62 69 -91 103 -28 34 -55 62 -59 62 -5 1 -8
-87 -8 -194z"/>
</g>
</svg>
